<?xml version="1.0" standalone="no"?>
<!DOCTYPE svg PUBLIC "-//W3C//DTD SVG 20010904//EN"
 "http://www.w3.org/TR/2001/REC-SVG-20010904/DTD/svg10.dtd">
<svg version="1.0" xmlns="http://www.w3.org/2000/svg"
 width="1579.000000pt" height="74.000000pt" viewBox="0 0 1579.000000 74.000000"
 preserveAspectRatio="xMidYMid meet">
<metadata>
Created by potrace 1.16, written by Peter Selinger 2001-2019
</metadata>
<g transform="translate(0.000000,74.000000) scale(0.100000,-0.100000)"
fill="#0c513f" stroke="none">
<path d="M0 475 l0 -264 38 -7 c20 -4 53 -13 73 -20 26 -9 40 -9 47 -2 14 14
33 -1 58 -47 l19 -35 124 0 124 0 101 49 c106 52 227 91 284 91 18 0 50 9 72
20 102 52 240 62 396 29 119 -25 259 -21 376 12 40 12 107 22 148 24 41 1 111
10 155 18 129 25 137 26 196 15 52 -9 60 -8 96 15 108 68 251 127 310 127 51
0 193 -72 235 -118 25 -28 40 -37 49 -31 28 17 57 8 125 -39 83 -57 201 -98
263 -89 24 3 60 19 88 40 107 78 182 99 261 73 27 -9 61 -30 77 -46 42 -44
108 -55 330 -55 182 0 195 1 315 32 151 39 323 63 445 63 50 0 126 0 170 2
243 7 380 3 410 -13 26 -14 50 -15 185 -7 226 13 252 8 336 -58 134 -105 164
-122 249 -139 71 -14 248 -15 1650 -12 1165 3 1592 7 1657 16 73 10 96 9 153
-4 101 -23 157 -20 185 10 30 32 72 32 114 0 l33 -25 1333 0 c1061 0 1331 3
1328 13 -3 6 -20 54 -38 104 -29 84 -38 97 -87 139 -63 54 -60 65 20 85 77 20
323 15 493 -10 l141 -21 46 20 c59 26 205 56 327 68 84 7 100 6 138 -11 89
-39 236 -18 357 52 l49 28 27 -28 c40 -43 97 -41 169 8 63 42 105 47 131 15 9
-12 19 -28 21 -34 3 -9 12 -8 31 5 14 9 34 17 43 17 9 0 71 -27 138 -59 136
-67 153 -71 214 -52 40 13 45 13 72 -7 16 -12 33 -22 38 -22 5 0 26 29 47 64
20 35 56 84 79 110 36 39 49 46 80 46 29 0 46 -9 82 -42 24 -23 52 -54 62 -70
9 -15 20 -28 24 -28 4 0 52 25 105 55 152 86 183 85 274 -2 57 -54 60 -55 74
-37 10 14 14 48 15 127 l0 107 -7890 0 -7890 0 0 -265z"/>
</g>
</svg>
